<?xml version="1.0" encoding="utf-8"?>
<!-- Svg Vector Icons : http://www.onlinewebfonts.com/icon -->
<!DOCTYPE svg PUBLIC "-//W3C//DTD SVG 1.1//EN" "http://www.w3.org/Graphics/SVG/1.1/DTD/svg11.dtd">
<svg version="1.1" xmlns="http://www.w3.org/2000/svg" xmlns:xlink="http://www.w3.org/1999/xlink" x="0px" y="0px" viewBox="0 0 256 256" enable-background="new 0 0 256 256" xml:space="preserve">
<metadata> Svg Vector Icons : http://www.onlinewebfonts.com/icon </metadata>
<g><g><g><path fill="#000000" d="M59.3,10.7c-3.3,1.2-6.2,3.2-7.8,5.4c-1.1,1.5-1.8,1.9-4.8,2.7c-11.6,2.9-20.2,11.5-23.4,22.9c-0.9,3.5-1,5.1-1,29c0,26.6,0.1,28.9,2.3,37.5c7.4,28.7,31.6,50.9,60.8,55.9l5,0.8l0.2,14.3c0.3,16,0.7,19,4.1,27.6c14.5,36.3,58.1,50.3,90.6,29.1c4.8-3.2,12.2-10,15.6-14.5c7.1-9.4,11.1-20.1,12.2-32.2c0.3-3.1,0.5-5.7,0.6-5.8c0.1-0.1,1.9-0.9,4.1-1.9c3-1.4,4.8-2.7,7.5-5.5c5.7-5.7,8.2-11.7,8.2-19.8c0-20.6-21.7-34-40.3-24.8c-3.7,1.8-8.8,6.4-11.1,10c-7,11-5.5,25.3,3.8,34.7c3.3,3.3,9.5,7.2,11.5,7.2c0.8,0,0.9,2,0.1,7.3c-2.5,18.4-16.3,33.9-34.3,38.6c-5.9,1.5-14.2,1.8-20,0.5c-17.6-3.6-30.8-15.8-36-33.1c-1-3.3-1.1-5-1.3-17.7l-0.2-14.1l2.4-0.3c28.9-4.1,53.3-24.4,62.2-51.8c3.3-10.3,3.4-11.1,3.6-39.6c0.3-29.5,0.2-30.1-3.4-37.5c-3.8-7.8-12.2-14.6-20.8-16.8c-3.1-0.8-3.7-1.2-6-3.7c-3.4-3.7-6.5-5.1-11.5-5.1c-4.6,0-8.4,1.6-11.2,4.8c-3,3.2-4,6-3.9,10.6c0,3.3,0.3,4.4,1.3,6.6c2.9,5.6,7.8,8.6,14.3,8.6c2.8,0,3.9-0.3,6.4-1.5c1.7-0.8,3.8-2.4,4.7-3.5c0.9-1,2-1.9,2.4-1.9c1.6,0,6,2.7,8.1,5c4.3,4.8,4.3,4.6,4.3,32.1c0,19.3-0.1,25-0.7,28.5c-5,29-30.5,50.6-59.8,50.6c-12.3,0-23.5-3.4-33.9-10.3c-13.4-8.9-22.7-23-26.1-39.4c-0.8-3.9-0.9-7.3-0.9-29.1V46.5l1.4-3.1c1.6-3.5,5.1-7.2,8.4-8.6c1.1-0.5,2.3-1,2.6-1c0.3,0,1.7,1.2,3.2,2.6c3.2,3.1,6.2,4.3,10.7,4.3c4,0,7.2-1.1,10-3.6c8.6-7.6,6.7-20.9-3.6-25.7C66.7,9.8,62.7,9.5,59.3,10.7z M212,143.2c3.5,1.6,7,5.6,8,9.2c3.4,11.7-8,22.3-19.3,18c-11.4-4.3-13-20-2.6-26.5c2.4-1.5,3.9-1.8,7.9-1.9C208.7,142,210.1,142.3,212,143.2z"/><path fill="#000000" d="M203.1,147.5c-4.4,1.2-7.5,6.7-6.3,11.3c0.6,2.5,3.1,5.4,5.3,6.3c5.6,2.4,12.3-1.5,13-7.5C215.9,150.9,209.8,145.8,203.1,147.5z"/></g></g></g>
</svg>