<?xml version="1.0" encoding="utf-8"?>
<!-- Svg Vector Icons : http://www.onlinewebfonts.com/icon -->
<!DOCTYPE svg PUBLIC "-//W3C//DTD SVG 1.1//EN" "http://www.w3.org/Graphics/SVG/1.1/DTD/svg11.dtd">
<svg version="1.1" xmlns="http://www.w3.org/2000/svg" xmlns:xlink="http://www.w3.org/1999/xlink" x="0px" y="0px" viewBox="0 0 256 256" enable-background="new 0 0 256 256" xml:space="preserve">
<metadata> Svg Vector Icons : http://www.onlinewebfonts.com/icon </metadata>
<g><g><g><path fill="#000000" d="M62.8,21.4c-17,2.2-32.5,11.8-42.1,26.3c-12.4,18.6-14,39.8-5.1,66.7C31.2,161,69.5,203.2,122.4,232l5.6,3l5.7-3c39.1-21.3,70.7-50.3,90.5-83l3-5l0-7.2v-7.2l-3.6,12.5l-3.6,12.5l-15.9,0.1c-8.7,0-17.6,0.1-19.8,0.1l-3.9,0l-8.8,24.7l-8.8,24.8l-0.2-30.9l-0.2-30.8l-3.7,6l-3.7,6l-15.2,0.1c-8.4,0-15.2,0.2-15.3,0.3c-0.1,0.1-2,12.9-4.2,28.5l-4.1,28.3l-3.2-0.1c-1.8,0-3.7-0.2-4.2-0.4l-1.1-0.2l-0.1-40.4l-0.1-40.4l-2.7,11.7c-1.5,6.5-2.8,12.1-2.9,12.6c-0.2,0.7-1.1,0.8-9.9,0.8h-9.6v-4.4v-4.4h6.2h6.2l0.9-3.8c0.5-2.1,5.4-23,10.8-46.4l9.9-42.6l0.1,46.2l0.1,46.2h16.5c9,0,16.7-0.2,17-0.4c0.2-0.2,5.2-8,10.9-17.4l10.5-17.1l0,21c0,13,0.2,20.6,0.4,20c0.2-0.5,0.9-2.1,1.4-3.6l0.9-2.6h19.4H213l0.5-1.1c0.2-0.6,5.4-18.3,11.5-39.3l11-38.3v29c0,17.4,0.2,28.9,0.5,28.6c1.5-1.6,7-19.9,8.6-28.8c1.2-6.8,1.2-19.5-0.2-25.8c-1.8-8.5-4.9-15.7-9.6-22.9c-10.7-15.8-27.7-25.4-47.2-26.4c-14.9-0.7-29,3.7-42.2,13.4c-4.4,3.2-13.7,12.5-16,15.9c-0.9,1.3-1.7,2.4-1.8,2.4c-0.1,0-1-1.1-1.8-2.4c-2.3-3.5-12.5-13.5-16.8-16.5C94.9,23.5,79,19.3,62.8,21.4z"/></g></g></g>
</svg>