<?xml version="1.0" encoding="utf-8"?>
<!-- Svg Vector Icons : http://www.onlinewebfonts.com/icon -->
<!DOCTYPE svg PUBLIC "-//W3C//DTD SVG 1.1//EN" "http://www.w3.org/Graphics/SVG/1.1/DTD/svg11.dtd">
<svg version="1.1" xmlns="http://www.w3.org/2000/svg" xmlns:xlink="http://www.w3.org/1999/xlink" x="0px" y="0px" viewBox="0 0 256 256" enable-background="new 0 0 256 256" xml:space="preserve">
<metadata> Svg Vector Icons : http://www.onlinewebfonts.com/icon </metadata>
<g><g><path fill="#000000" d="M123.8,197.3c-2.6-2.6-6.8-2.6-9.4,0l-31.4,31.4l-3.9-3.9l42.2-42.1c2.6-2.6,2.6-6.8,0-9.4c-2.6-2.6-6.8-2.6-9.4,0l-42.2,42.1l-3.9-3.9l49-49c2.6-2.6,2.6-6.8,0-9.4c-2.6-2.6-6.8-2.6-9.4,0l-49,49l-3.9-3.9l38.5-38.5c2.6-2.6,2.6-6.8,0-9.4c-2.6-2.6-6.8-2.6-9.4,0l-49.5,49.4c0-4.8-0.1-13.4-0.1-21.2c0-10.8-13.7-12.4-14.3-11.7c-0.7,0.8-7.5,75.8-7.5,75.8h78.1l4.4-4.4l0,0l31.4-31.4C126.4,204.1,126.4,199.9,123.8,197.3L123.8,197.3z"/><path fill="#000000" d="M159,13.5c-39.5,0-75.8,29.6-83.4,62.2c-1.7,7.3-3.6,26.2-3.6,26.2l-18.1,45.7c-0.4,0.8-0.6,1.8-0.6,2.7c0,3.9,3.1,7,7,7h6.2l11.1-11.1c4.8-4.7,12.4-4.7,17.2,0c1.8,1.8,2.8,3.9,3.3,6.2l3.4-3.4c4.7-4.7,12.4-4.7,17.2,0c4.6,4.6,4.7,12.1,0.2,16.9c2.3,0.5,4.5,1.6,6.2,3.3c4.7,4.7,4.7,12.4,0,17.2l-3.5,3.5c2.3,0.5,4.4,1.6,6.2,3.3c4.7,4.7,4.7,12.5,0,17.2l-7.8,7.8v24.1h92.9v-73.8c20.2-15.9,33.3-40.6,33.3-68.3C246,52.4,207,13.5,159,13.5L159,13.5z M93.3,119.3c-5.4,0-9.7-4.4-9.7-9.7c0-5.4,4.4-9.7,9.7-9.7c5.4,0,9.7,4.3,9.7,9.7C103,114.9,98.7,119.3,93.3,119.3z M138.8,141.9c2.4,0,4.4,2,4.4,4.4c0,2.5-2,4.4-4.4,4.4c-2.4,0-4.4-2-4.4-4.4C134.3,143.9,136.3,141.9,138.8,141.9z M136.1,169.5c-2.4,0-4.4-2-4.4-4.4c0-2.4,2-4.4,4.4-4.4c2.4,0,4.4,2,4.4,4.4C140.6,167.5,138.6,169.5,136.1,169.5z M145.6,188.5c-3.7-0.3-6.4-3.5-6.1-7.2c0.3-3.6,3.5-6.3,7.2-6c3.6,0.3,6.3,3.5,6,7.2C152.4,186.1,149.2,188.8,145.6,188.5L145.6,188.5z M151.9,162c-3.7,0-6.6-3-6.6-6.6c0-3.7,2.9-6.6,6.6-6.6c3.6,0,6.6,3,6.6,6.6C158.5,159,155.6,162,151.9,162z M161.3,175.9c-2.5,0-4.5-2-4.5-4.4c0-2.4,2-4.4,4.5-4.4c2.4,0,4.4,2,4.4,4.4C165.7,173.9,163.8,175.9,161.3,175.9z M171.2,150.2h-1.5v-7.9l1.5,0c9.8,0,17.9-8,17.9-17.9c0-9.8-8.1-17.9-17.9-17.9h-1.5v-7.9h1.5c14.2,0,25.8,11.6,25.8,25.8C197,138.6,185.4,150.2,171.2,150.2L171.2,150.2z"/></g></g>
</svg>