<?xml version="1.0" encoding="utf-8"?>
<!-- Svg Vector Icons : http://www.onlinewebfonts.com/icon -->
<!DOCTYPE svg PUBLIC "-//W3C//DTD SVG 1.1//EN" "http://www.w3.org/Graphics/SVG/1.1/DTD/svg11.dtd">
<svg version="1.1" xmlns="http://www.w3.org/2000/svg" xmlns:xlink="http://www.w3.org/1999/xlink" x="0px" y="0px" viewBox="0 0 256 256" enable-background="new 0 0 256 256" xml:space="preserve">
<metadata> Svg Vector Icons : http://www.onlinewebfonts.com/icon </metadata>
<g><g><path fill="#000000" d="M127.9,246L127.9,246c-10.3,0-20.5-1.3-30.4-4c-15.3-4.1-29.4-11.1-41.9-20.9c-12-9.4-22-20.9-29.7-34.2c-7.7-13.3-12.6-27.7-14.8-42.8C9,128.5,9.9,112.8,14,97.5c3.4-12.9,9-24.9,16.4-35.9C37.7,51,46.6,41.7,56.8,34C67,26.3,78.2,20.3,90.3,16.2c12.2-4.2,25-6.3,37.8-6.3c10.2,0,20.5,1.3,30.4,4c15.3,4.1,29.4,11.1,41.9,20.9c12,9.4,22,20.9,29.7,34.2c7.7,13.3,12.6,27.7,14.8,42.8c2.2,15.7,1.2,31.4-2.9,46.7c-3.4,12.9-9,24.9-16.4,35.9c-7.2,10.6-16.1,19.8-26.3,27.6c-10.2,7.7-21.4,13.6-33.5,17.7C153.5,243.9,140.8,246,127.9,246z M128.1,19.6c-11.8,0-23.5,1.9-34.7,5.8C82.3,29.1,72,34.6,62.6,41.7C53.2,48.8,45,57.3,38.4,67c-6.9,10-11.9,21.1-15.1,32.9c-3.8,14.1-4.7,28.5-2.6,42.9c2,13.9,6.5,27.1,13.6,39.3c7.1,12.2,16.2,22.8,27.3,31.4c11.4,8.9,24.4,15.4,38.5,19.1c9.2,2.5,18.5,3.7,27.9,3.7l0,0c11.8,0,23.5-1.9,34.7-5.8c11.1-3.8,21.4-9.2,30.8-16.3c9.4-7.1,17.6-15.7,24.2-25.4c6.9-10,11.9-21.1,15.1-32.9c3.8-14.1,4.7-28.5,2.6-42.9c-2-13.9-6.5-27.1-13.6-39.3s-16.2-22.8-27.3-31.4c-11.4-8.9-24.4-15.4-38.5-19.1C146.9,20.8,137.5,19.6,128.1,19.6z M151.8,219.7c-7.8,0-16.3-2-25.2-5.8c-7.8-3.3-15.9-8.2-23.5-13.9c-14.9-11.4-26.1-25.1-29.3-35.8c-5-16.8,5.6-29.1,9-32.5l0.1-0.1c0.9-0.8,2.1-1.7,3.5-2.6c-3,0.8-6.2,1.3-9.4,1.3c-10.2,0-19.9-4.4-26.5-12.1c-6.1-7.1-9-16.1-8.3-25.4c0.7-9.3,5-17.8,12-23.9c6.3-5.4,14.4-8.4,22.8-8.4c10.2,0,19.9,4.4,26.5,12.1c12.5,14.6,10.9,36.6-3.6,49.2c3.1-1.5,6.5-3.1,9.9-4.6c1.1-0.5,2.1-1,3-1.4l6-30.4c1.4-7.1,7.7-12.2,14.9-12.2c1,0,2,0.1,2.9,0.3c4,0.8,7.4,3.1,9.6,6.4c2.3,3.4,3.1,7.4,2.3,11.4l-8.5,43.1l-12.5,12.2c0.2,1.1,1.5,3.6,4.2,6.4c3,3.1,6.1,4.7,7.6,4.9c0.1,0,0.2,0,0.3,0c1.6,0,3.5-1,4.9-2.6c1-1.1,1.3-2,1.4-2.4c-5.7-4.6-7.8-11.9-5.3-19.1c2.6-7.6,9.4-12.9,16.5-12.9c0.8,0,1.7,0.1,2.5,0.2l51.9,9c8.7,1.5,14.6,9.5,14.5,19.2l0,0.1l-0.1,1.4c-0.3,4.4-2.5,8.4-6.2,11.2c-3.3,2.5-7.4,3.9-11.7,3.9c-1.1,0-2.2-0.1-3.3-0.3l-20.8-3.6c0.2,4.8,0.5,11.1,1.2,17.9c1.8,18.8-4.6,27.2-11.8,33.6l-0.2,0.2l-0.2,0.2C166.9,217.7,159.8,219.7,151.8,219.7z M89.6,138.6c-2.5,2.5-9.9,11.2-6.5,22.9c2.6,8.6,13,21,25.9,30.9c14.8,11.3,30.4,17.7,42.8,17.7c5.9,0,11.1-1.4,15.4-4.3c5.3-4.7,9.8-10.2,8.4-25.2c-1-10.4-1.3-19.8-1.4-24.4l-0.1-5.9l32.4,5.6c0.5,0.1,1.1,0.1,1.6,0.1c3.8,0,7.8-2.2,8.3-5.9l0-0.4c0.4-4.6-1.8-9.6-6.5-10.5l-51.9-8.9c-0.3,0-0.6-0.1-0.8-0.1c-3,0-6.2,2.8-7.4,6.4c-0.7,2-1.3,5.7,2.3,8.5l0,0c3.3,2.6,4.3,6.7,2.8,11c-1.9,5.4-8.2,11-15.3,11c-0.3,0-0.6,0-1,0c-4.9-0.3-9.6-3.9-11.9-6c-3.7-3.3-6.6-7.2-7.9-10.7c-2.1-5.6,0-8.9,1.4-10.4l0.1-0.1l10.9-10.6l7.9-40.2c0.3-1.4,0-2.9-0.8-4.2c-0.8-1.2-2.1-2.1-3.5-2.3c-3.1-0.6-5.9,1.4-6.5,4.4l-6.9,35.1l-2.1,1.1c-1.1,0.6-3,1.4-5.4,2.6C107.1,129,93.1,135.4,89.6,138.6z M77,70c-6,0-11.9,2.2-16.5,6.1c-5.1,4.4-8.2,10.5-8.7,17.3c-0.5,6.8,1.6,13.3,6,18.4c4.8,5.6,11.8,8.8,19.2,8.8c6,0,11.9-2.2,16.5-6.1c10.6-9.1,11.8-25.1,2.7-35.7C91.4,73.2,84.4,70,77,70z"/></g></g>
</svg>