<?xml version="1.0" encoding="utf-8"?>
<!-- Svg Vector Icons : http://www.onlinewebfonts.com/icon -->
<!DOCTYPE svg PUBLIC "-//W3C//DTD SVG 1.1//EN" "http://www.w3.org/Graphics/SVG/1.1/DTD/svg11.dtd">
<svg version="1.1" xmlns="http://www.w3.org/2000/svg" xmlns:xlink="http://www.w3.org/1999/xlink" x="0px" y="0px" viewBox="0 0 256 256" enable-background="new 0 0 256 256" xml:space="preserve">
<metadata> Svg Vector Icons : http://www.onlinewebfonts.com/icon </metadata>
<g><g><path fill="#000000" d="M127.7,74.9c17.9,0,32.4-14.5,32.4-32.4c0-17.9-14.5-32.4-32.4-32.4c-17.9,0-32.5,14.5-32.5,32.4C95.2,60.3,109.7,74.9,127.7,74.9z"/><path fill="#000000" d="M170.5,84.7c-5.3,0-21.4,0-38.2,0V115l7,1.7v-7c0-4.5,4.2-8.7,11.8-3.6c10.7,7.2,22.2,48.1,9.7,46.5c-6-0.8-9.4-3.7-16.1-4.1c-5.4-0.3-5.4-2.6-5.4-5.6c0-3.1,0-12.8,0-12.8v-5.4c-2.3-0.6-4.9-1.2-7-1.7v37.5c0,0,10.5-7.2,18.1-1.3c4.7,3.7,7.7,14.3-7,23c-3.4,2.1-21.8,6.9-27.6-3.9h-6.5c-2.9,0-5.3,2.4-5.3,5.3c0,2.9,2.4,5.3,5.3,5.3h38.7c6.1,0,11.1,5,11.1,11.1s-5,11.1-11.1,11.1h-40c-1.4,0-2.5,1.1-2.5,2.5c0,1.4,1.1,2.5,2.5,2.5h40c6.1,0,11.1,5,11.1,11.1s-5,11.1-11.1,11.1h-46.8c-2.4,0-4.3-1.9-4.3-4.3c0-2.4,1.9-4.3,4.3-4.3h46.8c1.4,0,2.5-1.1,2.5-2.5c0-1.4-1.1-2.5-2.5-2.5h-40c-6.1,0-11.1-5-11.1-11.1c0-6.1,5-11.1,11.1-11.1h40c1.4,0,2.5-1.1,2.5-2.5s-1.1-2.5-2.5-2.5h-38.7c-7.7,0-13.9-6.3-13.9-13.9c0-7.7,6.3-13.9,13.9-13.9h8.6c0,0,0.1,0,0.2,0h2.9c2.9,0,2.7-3,2.7-3v-43.1c-2.4,0.7-5.2,1.4-7,2v4.8c0,0,0,9.8,0,12.8c0,3.1,0,5.4-5.4,5.6c-6.6,0.4-10,3.3-16.1,4.1c-12.5,1.6-1-39.3,9.7-46.5c7.6-5.1,11.8-1,11.8,3.6v7.6l7-2V84.7c-16.2,0-31.5,0-36.5,0c-22.9,0-43.4,18.6-43.4,41.6c0,11.7,0,92.7,0,100.6s6.2,14.2,14,14.2S72,234.7,72,226.9c0-9.1,0-90.7,0-90.7h11.8V246h88.4V136.2H184c0,0,0,81.6,0,90.7c0,7.8,6.4,14.2,14.2,14.2c7.9,0,14-6.4,14-14.2s0-88.9,0-100.6C212.2,103.3,193.4,84.7,170.5,84.7L170.5,84.7z"/></g></g>
</svg>