<?xml version="1.0" encoding="utf-8"?>
<!-- Svg Vector Icons : http://www.onlinewebfonts.com/icon -->
<!DOCTYPE svg PUBLIC "-//W3C//DTD SVG 1.1//EN" "http://www.w3.org/Graphics/SVG/1.1/DTD/svg11.dtd">
<svg version="1.1" xmlns="http://www.w3.org/2000/svg" xmlns:xlink="http://www.w3.org/1999/xlink" x="0px" y="0px" viewBox="0 0 256 256" enable-background="new 0 0 256 256" xml:space="preserve">
<metadata> Svg Vector Icons : http://www.onlinewebfonts.com/icon </metadata>
<g><g><path fill="#000000" d="M124.3,75.2c18,0,32.6-14.6,32.6-32.6c0-18-14.6-32.6-32.6-32.6c-18,0-32.6,14.6-32.6,32.6C91.7,60.6,106.3,75.2,124.3,75.2z M124.3,16.8c14.3,0,25.8,11.5,25.8,25.8c0,14.3-11.5,25.8-25.8,25.8c-14.3,0-25.8-11.5-25.8-25.8C98.5,28.3,110,16.8,124.3,16.8z"/><path fill="#000000" d="M201,127.8l-38.7-39.7l-0.3-0.3c-7.5-6.1-24.1-10.9-33.6-9.9c-0.3,0-0.7,0-1,0c-9.2-1-25.8,3.7-33.3,9.5c-0.3,0.3-0.3,0.3-0.7,0.7l-39.1,39.7c-6.1,6.1-5.4,16.3,0.7,22.4c2.7,3.1,4.7,4.4,11.5,4.4l0,0c3.4,0,7.5-1.7,10.5-4.7l6.5-6.8c0,2,0,4.4,0,6.5c0.3,2.4,0.3,9.5,43.1,9.5c0.3,0,0.7,0,1.3,0c45.2,0,45.5-7.5,45.5-9.8c0-1.7,0-3.7,0.3-5.4l6.1,6.5c3.1,3.1,7.1,5.4,11.2,5.4l0,0c4.1,0,7.8-2,10.9-5.1C207.5,144.5,207.2,133.9,201,127.8z M196.6,145.5c-1.7,1.7-3.7,2.4-6.1,2.4l0,0c-2.4,0-4.7-1-6.5-2.7l-18.7-19l1,9.5c0.3,2.7,0.3,5.1,0.3,7.5v0.3c0,2.7-1.7,5.1-4.4,5.4c-14.3,3.1-54,3.4-68.2,0.3c-2.7-0.7-4.4-2.7-4.4-5.4c0-0.3,0-0.3,0-0.7c0-2.4,0-5.1,0.3-8.1l1-9.5l-19.7,19.7c-1.7,1.7-4.1,2.7-6.5,2.7c-2.4,0-4.4-1-6.1-2.4c-3.4-3.4-3.4-9.2,0.3-12.9l38.4-39.1c0.3-0.3,0.3-0.3,0.7-0.7c6.5-5.1,21.7-9.2,28.9-7.8h0.7h0.7c7.1-1.3,22.4,3.1,28.9,7.8c0.3,0.3,0.3,0.3,0.7,0.7l38.4,39.1C200,136,200,142.1,196.6,145.5z"/><path fill="#000000" d="M195.3,190c-0.3-0.7-1-1.3-1.7-2c-0.7-0.7-1.3-1-2-1.7l-25.8-25.8l-23.4,23.4l18,18l-19.4,19.4c-2.7,2.7-4.1,6.1-4.1,9.8c0,3.7,1.3,7.1,4.1,9.8c2.7,2.7,6.1,4.1,9.5,4.1s7.1-1.3,9.8-4.1l33.3-33.3c3.7-3.7,5.1-8.8,3.4-13.6l1.3-0.7L195.3,190z M188.8,202.9l-33.3,33.3c-2.7,2.7-7.5,3.1-10.2,0.3c-1.3-1.3-2-3.1-2-5.1c0-2,0.7-3.7,2-5.1l24.1-24.1l-18-18l14.3-14.3l21.4,21.4l0.7,0.3c0.3,0.3,0.7,0.7,1,1c0.3,0.3,0.3,0.7,0.7,1l0.3,0.3C191.6,196.8,191.2,200.5,188.8,202.9z"/><path fill="#000000" d="M92.7,202.9l18-18l-23.4-23.4l-26.2,25.8c-0.7,0.3-1.3,1-2,1.7c-2.7,2.7-4.1,6.1-4.1,9.8s1.3,7.1,4.1,9.8l33.3,33.3c2.7,2.7,6.5,4.1,9.8,4.1s6.8-1.3,9.5-4.1c5.4-5.4,5.1-13.9-0.3-19.4L92.7,202.9z M107.3,236.8c-2.7,2.7-7.1,2.7-10.2-0.3l-33.3-33.3c-1.3-1.3-2-3.1-2-5.1s0.7-3.7,2-5.1c0.3-0.3,0.7-0.7,1-1L87,170.3l14.3,14.3l-18,18l24.1,24.1C110,229.7,110,234.1,107.3,236.8z"/></g></g>
</svg>